<?xml version="1.0" standalone="no"?>
<!DOCTYPE svg PUBLIC "-//W3C//DTD SVG 20010904//EN"
 "http://www.w3.org/TR/2001/REC-SVG-20010904/DTD/svg10.dtd">
<svg version="1.0" xmlns="http://www.w3.org/2000/svg"
 width="420.000000pt" height="420.000000pt" viewBox="0 0 420.000000 420.000000"
 preserveAspectRatio="xMidYMid meet">
<metadata>
Created by potrace 1.11, written by Peter Selinger 2001-2013
</metadata>
<g transform="translate(0.000000,420.000000) scale(0.100000,-0.100000)"
fill="#000000" stroke="none">
<path d="M480 2120 l0 -1600 1600 0 1600 0 0 1600 0 1600 -1600 0 -1600 0 0
-1600z m3040 0 l0 -1440 -1440 0 -1440 0 0 1440 0 1440 1440 0 1440 0 0 -1440z"/>
<path d="M1330 2140 l0 -780 185 0 185 0 0 273 c0 277 -9 424 -36 626 -8 62
-13 115 -11 118 3 2 30 -71 61 -164 30 -92 102 -293 158 -445 l103 -278 111 0
112 0 95 258 c53 141 123 336 157 432 33 96 63 181 65 189 12 31 13 1 4 -64
-30 -211 -39 -364 -39 -646 l0 -299 185 0 185 0 0 780 0 780 -222 -2 -221 -3
-109 -305 c-60 -168 -127 -368 -150 -445 -22 -77 -44 -144 -49 -149 -4 -5 -17
25 -29 65 -40 137 -59 193 -177 516 l-118 323 -222 0 -223 0 0 -780z"/>
</g>
</svg>
